<svg width="245" height="42" viewBox="0 0 245 42" fill="none" xmlns="http://www.w3.org/2000/svg">
<path d="M10.2496 32.6753C9.80625 32.1213 9.21729 31.6665 8.73867 31.1394C7.45523 29.7254 6.73803 27.7431 6.68315 25.8565C6.65419 24.8617 6.67742 23.8599 6.67752 22.8644L6.67829 17.2426L6.67668 13.3875C6.67585 11.9915 6.60541 10.5933 6.9457 9.22538C7.3061 7.77668 8.11275 6.4445 9.15042 5.36728C10.3162 4.15709 12.0966 3.28377 13.7392 2.93951C14.5885 2.76154 15.6307 2.69033 16.5047 2.67032C18.3038 2.62916 20.1133 2.66871 21.9137 2.66864L32.642 2.66815L38.2666 2.66648C40.0002 2.66614 41.7614 2.57817 43.4693 2.92674C45.0491 3.24918 46.6672 4.10402 47.8293 5.20803C48.4462 5.79401 48.9705 6.51002 49.3737 7.25424C49.7032 7.86292 49.9825 8.49153 50.1408 9.16596C50.3488 10.0518 50.3219 10.9473 50.3218 11.8495C50.3168 12.6742 50.3198 13.4989 50.3307 14.3235C48.2996 14.2968 46.2648 14.3215 44.2333 14.3214C44.1119 14.7604 44.145 15.8337 44.207 16.2877C43.3798 16.2133 42.5229 16.2894 41.6922 16.2903C40.8278 16.2913 39.9426 16.2877 39.0898 16.2903C39.0952 15.7307 39.1692 14.7531 39.0714 14.2433C39.0388 14.0724 38.9684 13.9078 38.8494 13.7777C38.739 13.6568 38.3434 13.6343 38.1762 13.6265C37.3315 13.587 36.4695 13.6201 35.6232 13.6202L30.7386 13.6215C26.8797 13.6227 23.0118 13.5658 19.1539 13.6222C18.8956 13.626 18.25 13.5845 18.0524 13.7603C17.8785 13.9149 17.8626 14.3845 17.8392 14.6027C17.7436 15.4932 17.9112 16.6907 17.9119 17.6139C17.9131 19.156 17.873 20.7109 17.9159 22.2515C17.9252 22.5819 17.9651 23.0405 18.2234 23.2813C18.4225 23.4667 18.7141 23.5392 18.9783 23.5697C19.4289 23.6216 19.9008 23.5949 20.354 23.5934L22.6641 23.5881L30.2824 23.5913C31.4546 23.5913 32.836 23.5277 33.9872 23.591C34.2028 23.6028 34.4185 23.6336 34.6243 23.7001C35.3436 23.9329 38.0028 25.5139 38.3791 25.4846C38.6568 25.463 38.9715 25.3151 39.1609 25.1336C39.1209 23.8435 39.0965 22.3475 39.0832 21.0566C40.7935 21.0668 42.5037 21.0678 44.214 21.0595C44.1743 21.3835 44.0995 22.6109 44.2351 22.8856C46.2598 22.8456 48.2934 22.8847 50.3191 22.885C50.3191 24.5017 50.3985 26.1556 50.0433 27.7719C49.6125 29.7315 48.3061 31.687 46.5839 32.7709C45.8254 33.2483 44.9231 33.5842 44.0317 33.7051C43.1825 33.8204 42.3007 33.7763 41.4447 33.7753L37.6086 33.7719L24.2905 33.7725L21.3572 33.7698C20.9 33.7695 20.3106 33.705 19.8693 33.8035C19.291 33.9324 18.2133 34.6263 17.6704 34.9277C16.3461 35.6627 14.9899 36.3326 13.6547 37.0487C12.9618 37.4202 11.9693 38.0634 11.2461 38.3096C11.0379 38.3805 10.726 38.3613 10.5146 38.3116C10.179 38.2326 9.85364 37.9416 9.67936 37.6561C9.54172 37.4308 9.48347 37.1915 9.47791 36.9296C9.46166 36.1634 10.0355 33.5001 10.2496 32.6753Z" fill="#FEFEFE"/>
<path d="M44.2738 22.8856C44.2894 23.7229 44.2566 24.5603 44.2526 25.3975C44.2405 26.2689 44.0081 27.0069 43.3622 27.624C42.9855 27.984 42.5239 28.2635 41.9962 28.332C41.2363 28.4306 40.1046 28.3626 39.3027 28.3627L33.3406 28.3401L20.8828 28.3393C19.1524 28.3384 17.4163 28.3702 15.6865 28.3436C14.8524 28.3309 14.1917 28.1051 13.6072 27.5036C13.2157 27.1075 12.956 26.6027 12.8626 26.0568C12.7597 25.4451 12.8075 24.7806 12.8083 24.1615L12.811 21.2051L12.8078 15.1512C12.8072 14.0629 12.7887 12.971 12.8132 11.883C12.8324 11.0294 13.059 10.3233 13.6991 9.72256C13.9966 9.44333 14.5036 9.09351 14.913 9.0273C16.0489 8.84356 17.2669 8.93166 18.4178 8.93168L24.0954 8.9318L35.5134 8.93208C37.4638 8.93201 39.4272 8.87976 41.3759 8.9365C42.1905 8.96021 42.9462 9.22719 43.5111 9.82832C44.3045 10.6727 44.2577 11.5821 44.255 12.6487C44.2586 13.2063 44.2512 13.764 44.2333 14.3214C44.2333 14.8134 44.207 15.8275 44.207 16.2877C43.36 16.2832 42.5229 16.2894 41.6922 16.2903C40.8278 16.2913 39.9427 16.2877 39.0898 16.2877C39.0952 15.728 39.0898 14.7432 39.0715 14.2433C39.0388 14.0724 38.9684 13.9078 38.8494 13.7777C38.739 13.6568 38.3434 13.6343 38.1762 13.6265C37.3315 13.587 36.4695 13.6201 35.6232 13.6202L30.7386 13.6215C26.8797 13.6227 23.0118 13.5658 19.1539 13.6222C18.8956 13.626 18.4018 13.625 18.2042 13.8008C17.9102 14.0411 17.96 14.3902 17.9365 14.6084C17.9365 15.5154 17.9095 16.6984 17.9102 17.6216C17.9102 19.1661 17.873 20.7109 17.9159 22.2515C17.9252 22.5819 17.9651 23.0405 18.2234 23.2813C18.4225 23.4667 18.7141 23.5392 18.9783 23.5697C19.4289 23.6216 19.9008 23.5949 20.354 23.5934L22.6641 23.5881L30.2824 23.5913C31.4546 23.5913 32.836 23.5277 33.9872 23.591C34.2029 23.6028 34.4185 23.6336 34.6243 23.7001C35.3436 23.9329 38.0101 25.4363 38.3863 25.4069C38.6641 25.3853 39.0833 25.2038 39.1013 24.9326C39.1013 24.6421 39.0965 22.3475 39.0833 21.0566C40.7935 21.0668 42.5423 21.0678 44.2526 21.0595C44.2526 21.4127 44.2526 22.6062 44.2738 22.8856Z" fill="#FE800A"/>
<path d="M28.4697 17.3882C28.7146 17.383 28.9561 17.4459 29.1664 17.5699C29.5786 17.8097 29.7288 18.179 29.8443 18.6122C29.7877 18.7922 29.7307 18.9879 29.635 19.1516C29.4123 19.533 29.0323 19.6657 28.6245 19.7725C28.3779 19.7745 28.0917 19.6824 27.8825 19.555C27.6062 19.3868 27.395 19.1106 27.3276 18.7947C27.2663 18.5083 27.3485 18.2274 27.5129 17.9889C27.7419 17.6567 28.0764 17.466 28.4697 17.3882Z" fill="#FEFEFE"/>
<path d="M34.1674 17.3926C34.8199 17.3503 35.3872 17.8301 35.4453 18.4734C35.5035 19.1168 35.0311 19.6884 34.3814 19.7609C33.9473 19.8093 33.5207 19.6216 33.2668 19.2706C33.0128 18.9195 32.9713 18.4601 33.1584 18.07C33.3453 17.6801 33.7315 17.4208 34.1674 17.3926Z" fill="#FEFEFE"/>
<ellipse cx="22.8853" cy="18.5343" rx="1.2793" ry="1.2637" fill="#FEFEFE"/>
<ellipse cx="28.5711" cy="18.5343" rx="1.2793" ry="1.2637" fill="#FEFEFE"/>
<ellipse cx="34.2568" cy="18.5343" rx="1.2793" ry="1.2637" fill="#FEFEFE"/>
<path d="M69.256 32.384C67.016 32.384 65.0853 31.904 63.464 30.944C61.864 29.9627 60.6267 28.608 59.752 26.88C58.8987 25.1307 58.472 23.1147 58.472 20.832C58.472 18.5493 58.8987 16.5333 59.752 14.784C60.6267 13.0347 61.864 11.6693 63.464 10.688C65.0853 9.70667 67.016 9.216 69.256 9.216C71.9653 9.216 74.184 9.888 75.912 11.232C77.64 12.576 78.7173 14.4747 79.144 16.928H74.44C74.1627 15.7333 73.576 14.8053 72.68 14.144C71.8053 13.4613 70.6533 13.12 69.224 13.12C67.9013 13.12 66.76 13.44 65.8 14.08C64.8613 14.6987 64.136 15.584 63.624 16.736C63.112 17.8667 62.856 19.232 62.856 20.832C62.856 22.4107 63.112 23.776 63.624 24.928C64.136 26.08 64.8613 26.9653 65.8 27.584C66.76 28.2027 67.9013 28.512 69.224 28.512C70.6533 28.512 71.8053 28.2027 72.68 27.584C73.5547 26.944 74.1307 26.0587 74.408 24.928H79.144C78.7173 27.2533 77.64 29.0773 75.912 30.4C74.184 31.7227 71.9653 32.384 69.256 32.384ZM86.897 32.384C85.553 32.384 84.4437 32.1707 83.569 31.744C82.6943 31.296 82.0437 30.7093 81.617 29.984C81.2117 29.2373 81.009 28.416 81.009 27.52C81.009 26.5387 81.2543 25.6747 81.745 24.928C82.257 24.1813 83.0143 23.5947 84.017 23.168C85.041 22.7413 86.321 22.528 87.857 22.528H91.857C91.857 21.7387 91.7503 21.088 91.537 20.576C91.3237 20.0427 90.993 19.648 90.545 19.392C90.097 19.136 89.4997 19.008 88.753 19.008C87.9423 19.008 87.249 19.1893 86.673 19.552C86.1183 19.8933 85.777 20.4267 85.649 21.152H81.457C81.5637 20 81.937 19.008 82.577 18.176C83.2383 17.3227 84.1023 16.6613 85.169 16.192C86.257 15.7227 87.4623 15.488 88.785 15.488C90.2997 15.488 91.6117 15.744 92.721 16.256C93.8303 16.768 94.6837 17.504 95.281 18.464C95.8783 19.424 96.177 20.608 96.177 22.016V32H92.529L92.049 29.536C91.8143 29.9627 91.537 30.3467 91.217 30.688C90.897 31.0293 90.5237 31.328 90.097 31.584C89.6703 31.84 89.1903 32.032 88.657 32.16C88.1237 32.3093 87.537 32.384 86.897 32.384ZM87.921 29.056C88.4757 29.056 88.9663 28.96 89.393 28.768C89.841 28.5547 90.225 28.2773 90.545 27.936C90.865 27.5733 91.1103 27.168 91.281 26.72C91.473 26.2507 91.601 25.7493 91.665 25.216V25.184H88.369C87.7077 25.184 87.1637 25.2693 86.737 25.44C86.3317 25.5893 86.033 25.8133 85.841 26.112C85.649 26.4107 85.553 26.752 85.553 27.136C85.553 27.5627 85.649 27.9147 85.841 28.192C86.033 28.4693 86.3103 28.6827 86.673 28.832C87.0357 28.9813 87.4517 29.056 87.921 29.056ZM98.927 39.04V15.872H102.767L103.247 18.112C103.588 17.6427 103.994 17.216 104.463 16.832C104.932 16.4267 105.487 16.1067 106.127 15.872C106.788 15.616 107.556 15.488 108.431 15.488C109.946 15.488 111.279 15.8613 112.431 16.608C113.583 17.3547 114.49 18.368 115.151 19.648C115.834 20.9067 116.175 22.3467 116.175 23.968C116.175 25.5893 115.834 27.04 115.151 28.32C114.468 29.5787 113.551 30.5707 112.399 31.296C111.247 32.0213 109.935 32.384 108.463 32.384C107.268 32.384 106.234 32.1707 105.359 31.744C104.506 31.296 103.802 30.688 103.247 29.92V39.04H98.927ZM107.439 28.608C108.292 28.608 109.039 28.416 109.679 28.032C110.34 27.648 110.852 27.104 111.215 26.4C111.578 25.696 111.759 24.8853 111.759 23.968C111.759 23.0507 111.578 22.24 111.215 21.536C110.852 20.8107 110.34 20.256 109.679 19.872C109.039 19.4667 108.292 19.264 107.439 19.264C106.607 19.264 105.86 19.4667 105.199 19.872C104.559 20.256 104.047 20.8 103.663 21.504C103.3 22.208 103.119 23.0187 103.119 23.936C103.119 24.8533 103.3 25.6747 103.663 26.4C104.047 27.104 104.559 27.648 105.199 28.032C105.86 28.416 106.607 28.608 107.439 28.608ZM125.255 32C124.124 32 123.132 31.8293 122.279 31.488C121.447 31.1253 120.796 30.5387 120.327 29.728C119.857 28.896 119.623 27.7653 119.623 26.336V19.488H116.871V15.872H119.623L120.103 11.488H123.943V15.872H128.199V19.488H123.943V26.4C123.943 27.1253 124.103 27.6267 124.423 27.904C124.743 28.1813 125.287 28.32 126.055 28.32H128.167V32H125.255ZM130.65 32V15.872H134.97V32H130.65ZM132.826 13.664C132.058 13.664 131.418 13.44 130.906 12.992C130.416 12.5227 130.17 11.936 130.17 11.232C130.17 10.528 130.416 9.952 130.906 9.504C131.418 9.03467 132.058 8.8 132.826 8.8C133.616 8.8 134.256 9.03467 134.746 9.504C135.258 9.952 135.514 10.528 135.514 11.232C135.514 11.936 135.258 12.5227 134.746 12.992C134.256 13.44 133.616 13.664 132.826 13.664ZM145.672 32.384C144.136 32.384 142.749 32.032 141.512 31.328C140.296 30.6027 139.325 29.6107 138.6 28.352C137.896 27.072 137.544 25.6107 137.544 23.968C137.544 22.2827 137.896 20.8107 138.6 19.552C139.325 18.272 140.306 17.28 141.544 16.576C142.781 15.8507 144.168 15.488 145.704 15.488C147.261 15.488 148.648 15.8507 149.864 16.576C151.101 17.28 152.072 18.272 152.776 19.552C153.501 20.8107 153.864 22.272 153.864 23.936C153.864 25.6 153.501 27.072 152.776 28.352C152.072 29.6107 151.101 30.6027 149.864 31.328C148.626 32.032 147.229 32.384 145.672 32.384ZM145.672 28.64C146.397 28.64 147.037 28.4693 147.592 28.128C148.168 27.7867 148.616 27.264 148.936 26.56C149.277 25.856 149.448 24.9813 149.448 23.936C149.448 22.8907 149.277 22.0267 148.936 21.344C148.616 20.64 148.168 20.1173 147.592 19.776C147.037 19.4133 146.408 19.232 145.704 19.232C145.021 19.232 144.392 19.4133 143.816 19.776C143.24 20.1173 142.781 20.64 142.44 21.344C142.12 22.0267 141.96 22.8907 141.96 23.936C141.96 24.9813 142.12 25.856 142.44 26.56C142.781 27.264 143.229 27.7867 143.784 28.128C144.36 28.4693 144.989 28.64 145.672 28.64ZM156.307 32V15.872H160.115L160.435 18.496C160.926 17.6 161.619 16.8747 162.515 16.32C163.432 15.7653 164.52 15.488 165.779 15.488C167.123 15.488 168.254 15.7653 169.171 16.32C170.088 16.8747 170.782 17.6853 171.251 18.752C171.742 19.8187 171.987 21.1307 171.987 22.688V32H167.699V23.104C167.699 21.824 167.422 20.8427 166.867 20.16C166.334 19.4773 165.502 19.136 164.371 19.136C163.646 19.136 162.995 19.3067 162.419 19.648C161.864 19.9893 161.427 20.48 161.107 21.12C160.787 21.7387 160.627 22.496 160.627 23.392V32H156.307ZM184.921 32.384C182.681 32.384 180.75 31.904 179.129 30.944C177.529 29.9627 176.292 28.608 175.417 26.88C174.564 25.1307 174.137 23.1147 174.137 20.832C174.137 18.5493 174.564 16.5333 175.417 14.784C176.292 13.0347 177.529 11.6693 179.129 10.688C180.75 9.70667 182.681 9.216 184.921 9.216C187.63 9.216 189.849 9.888 191.577 11.232C193.305 12.576 194.382 14.4747 194.809 16.928H190.105C189.828 15.7333 189.241 14.8053 188.345 14.144C187.47 13.4613 186.318 13.12 184.889 13.12C183.566 13.12 182.425 13.44 181.465 14.08C180.526 14.6987 179.801 15.584 179.289 16.736C178.777 17.8667 178.521 19.232 178.521 20.832C178.521 22.4107 178.777 23.776 179.289 24.928C179.801 26.08 180.526 26.9653 181.465 27.584C182.425 28.2027 183.566 28.512 184.889 28.512C186.318 28.512 187.47 28.2027 188.345 27.584C189.22 26.944 189.796 26.0587 190.073 24.928H194.809C194.382 27.2533 193.305 29.0773 191.577 30.4C189.849 31.7227 187.63 32.384 184.921 32.384ZM204.738 32.384C203.202 32.384 201.815 32.032 200.578 31.328C199.362 30.6027 198.391 29.6107 197.666 28.352C196.962 27.072 196.61 25.6107 196.61 23.968C196.61 22.2827 196.962 20.8107 197.666 19.552C198.391 18.272 199.373 17.28 200.61 16.576C201.847 15.8507 203.234 15.488 204.77 15.488C206.327 15.488 207.714 15.8507 208.93 16.576C210.167 17.28 211.138 18.272 211.842 19.552C212.567 20.8107 212.93 22.272 212.93 23.936C212.93 25.6 212.567 27.072 211.842 28.352C211.138 29.6107 210.167 30.6027 208.93 31.328C207.693 32.032 206.295 32.384 204.738 32.384ZM204.738 28.64C205.463 28.64 206.103 28.4693 206.658 28.128C207.234 27.7867 207.682 27.264 208.002 26.56C208.343 25.856 208.514 24.9813 208.514 23.936C208.514 22.8907 208.343 22.0267 208.002 21.344C207.682 20.64 207.234 20.1173 206.658 19.776C206.103 19.4133 205.474 19.232 204.77 19.232C204.087 19.232 203.458 19.4133 202.882 19.776C202.306 20.1173 201.847 20.64 201.506 21.344C201.186 22.0267 201.026 22.8907 201.026 23.936C201.026 24.9813 201.186 25.856 201.506 26.56C201.847 27.264 202.295 27.7867 202.85 28.128C203.426 28.4693 204.055 28.64 204.738 28.64ZM215.373 32V15.872H219.213L219.629 18.848C220.013 18.144 220.493 17.5467 221.069 17.056C221.667 16.5653 222.339 16.1813 223.085 15.904C223.853 15.6267 224.696 15.488 225.613 15.488V20.064H224.141C223.501 20.064 222.904 20.1387 222.349 20.288C221.816 20.4373 221.347 20.6827 220.941 21.024C220.536 21.344 220.227 21.792 220.013 22.368C219.8 22.944 219.693 23.6693 219.693 24.544V32H215.373ZM234.681 32.384C233.06 32.384 231.62 32.0427 230.361 31.36C229.124 30.656 228.153 29.6853 227.449 28.448C226.766 27.1893 226.425 25.7387 226.425 24.096C226.425 22.4107 226.766 20.928 227.449 19.648C228.153 18.3467 229.124 17.3333 230.361 16.608C231.598 15.8613 233.038 15.488 234.681 15.488C236.281 15.488 237.678 15.84 238.873 16.544C240.068 17.248 240.996 18.1973 241.657 19.392C242.318 20.5867 242.649 21.9413 242.649 23.456C242.649 23.6693 242.649 23.9147 242.649 24.192C242.649 24.448 242.628 24.7147 242.585 24.992H229.497V22.368H238.297C238.233 21.3227 237.86 20.5013 237.177 19.904C236.516 19.3067 235.684 19.008 234.681 19.008C233.956 19.008 233.284 19.1787 232.665 19.52C232.046 19.84 231.556 20.3413 231.193 21.024C230.852 21.7067 230.681 22.5707 230.681 23.616V24.544C230.681 25.4187 230.841 26.1867 231.161 26.848C231.502 27.488 231.972 27.9893 232.569 28.352C233.166 28.6933 233.86 28.864 234.649 28.864C235.438 28.864 236.089 28.6933 236.601 28.352C237.134 28.0107 237.529 27.5733 237.785 27.04H242.201C241.902 28.0427 241.401 28.9493 240.697 29.76C239.993 30.5707 239.129 31.2107 238.105 31.68C237.081 32.1493 235.94 32.384 234.681 32.384Z" fill="white"/>
</svg>
