<svg width="232" height="42" viewBox="0 0 232 42" fill="none" xmlns="http://www.w3.org/2000/svg">
<path d="M3.58097 30.0237C3.13764 29.4697 2.54868 29.0149 2.07006 28.4878C0.786624 27.0738 0.0694189 25.0915 0.0145369 23.2049C-0.014418 22.2101 0.0088084 21.2083 0.0089079 20.2128L0.0080696 10.7359C0.00724516 9.33994 -0.0632016 7.94166 0.277093 6.57379C0.637486 5.12508 1.44414 3.7929 2.48181 2.71569C3.64756 1.5055 5.42795 0.63217 7.0706 0.28791C7.91984 0.109939 8.96205 0.0387368 9.83609 0.0187282C11.6352 -0.0224403 13.4447 0.0171133 15.2451 0.0170431L31.598 0.0148808C33.3316 0.0145438 35.0928 -0.0734234 36.8006 0.275147C38.3804 0.597587 39.9986 1.45242 41.1606 2.55643C41.7776 3.14241 42.3019 3.85842 42.7051 4.60264C43.0345 5.21132 43.3139 5.83993 43.4722 6.51437C43.6802 7.40025 43.6533 8.29569 43.6532 9.19791C43.6482 10.0226 43.6512 10.8473 43.6621 11.6719C41.631 11.6452 39.5962 11.6699 37.5647 11.6698C37.4433 12.1088 35.7694 9.89446 35.8314 10.3484C35.0043 10.274 34.6621 9.34742 33.8314 9.3484C32.967 9.34939 33.6843 8.84574 32.8314 8.8484C32.8368 8.28873 32.59 8.85824 32.4922 8.3484C32.8814 5.7745 31.6266 8.47855 31.5076 8.3484C31.3972 8.22755 29.4986 8.85622 29.3314 8.8484C28.4866 8.80884 28.1649 9.34831 27.3186 9.3484H23.8314C19.9724 9.34968 12.3314 9.3484 12.3314 9.3484C12.3314 9.3484 10.529 9.67261 10.3314 9.8484C10.1338 10.0242 9.85484 11.1302 9.83139 11.3484C9.73587 12.2389 9.33068 13.9252 9.33139 14.8484C9.33253 16.3905 9.28846 17.8078 9.33139 19.3484C9.34063 19.6788 9.57311 21.6076 9.83139 21.8484C10.0305 22.0339 12.0671 22.3179 12.3314 22.3484C12.782 22.4004 13.8782 22.3499 14.3314 22.3484H23.8314C25.0037 22.3484 26.0928 22.4186 27.244 22.482C27.4597 22.4938 28.1256 22.7818 28.3314 22.8484C29.0506 23.0812 31.4551 23.8777 31.8314 23.8484C32.1091 23.8268 33.6421 23.03 33.8314 22.8484C33.7914 21.5583 35.2481 21.2918 33.8314 19.8484C35.5417 19.8587 34.6211 20.8567 36.3314 20.8484C36.2917 21.1723 37.4309 19.9593 37.5665 20.234C39.5912 20.194 41.6247 20.2331 43.6505 20.2334C43.6505 21.8501 43.7299 23.504 43.3747 25.1203C42.9439 27.0799 41.6375 29.0354 39.9153 30.1193C39.1568 30.5967 38.2545 30.9326 37.3631 31.0535C36.5139 31.1688 35.6321 31.1247 34.7761 31.1237L14.6886 31.1182C14.2313 31.1179 13.642 31.0534 13.2007 31.1519C12.6224 31.2808 11.5447 31.9747 11.0018 32.2761C9.67746 33.0111 8.32126 33.681 6.98606 34.3971C6.29321 34.7686 5.30066 35.4119 4.57747 35.658C4.3693 35.7289 4.05739 35.7097 3.84602 35.66C3.5104 35.5811 3.18503 35.29 3.01075 35.0045C2.87311 34.7792 2.81486 34.5399 2.8093 34.278C2.79305 33.5118 3.36688 30.8485 3.58097 30.0237Z" fill="#FEFEFE"/>
<path d="M37.6052 20.234C37.6208 21.0713 37.588 21.9087 37.584 22.7459C37.5719 23.6173 37.3395 24.3553 36.6936 24.9724C36.3169 25.3325 35.8552 25.6119 35.3276 25.6804C34.5677 25.779 33.4359 25.711 32.6341 25.7111L26.672 25.6885L14.2141 25.6877C12.4838 25.6869 10.7477 25.7186 9.01791 25.692C8.1838 25.6793 7.52304 25.4535 6.93855 24.852C6.54712 24.4559 6.28738 23.9511 6.19398 23.4052C6.09108 22.7935 6.13884 22.129 6.13969 21.5099L6.14238 18.5536L6.13914 12.4996C6.13863 11.4113 6.1201 10.3194 6.1446 9.23143C6.16381 8.3778 6.39035 7.67167 7.03044 7.07097C7.32799 6.79173 7.83498 6.44191 8.24436 6.37571C9.38023 6.19197 10.5983 6.28006 11.7492 6.28009L28.8448 6.28048C30.7952 6.28041 32.7586 6.22816 34.7073 6.2849C35.5219 6.30862 36.2776 6.5756 36.8424 7.17673C37.6359 8.02106 37.5891 8.93051 37.5864 9.99708C37.59 10.5547 37.5826 11.1124 37.5647 11.6698C37.5647 12.1618 37.5384 13.176 37.5384 13.6361C36.6913 13.6316 35.8542 13.6378 35.0236 13.6387C34.1592 13.6397 33.274 13.6361 32.4212 13.6361C32.4266 13.0764 32.4212 12.0916 32.4028 11.5917C32.3701 11.4208 32.2998 11.2562 32.1808 11.1261C32.0704 11.0052 31.6748 10.9827 31.5076 10.9749C30.6628 10.9354 29.8009 10.9685 28.9545 10.9686L24.07 10.9699C20.2111 10.9711 16.3432 10.9142 12.4852 10.9706C12.227 10.9744 11.7332 10.9734 11.5356 11.1492C11.2416 11.3895 11.2914 11.7386 11.2679 11.9568C11.2679 12.8638 11.2409 14.0468 11.2416 14.97C11.2416 16.5145 11.2044 18.0593 11.2473 19.5999C11.2565 19.9303 11.2965 20.3889 11.5548 20.6297C11.7539 20.8152 12.0454 20.8876 12.3097 20.9181C12.7603 20.97 13.2322 20.9433 13.6854 20.9418L15.9955 20.9365L23.6137 20.9397C24.786 20.9397 26.1674 20.8761 27.3186 20.9394C27.5342 20.9512 27.7499 20.982 27.9557 21.0485C28.6749 21.2813 31.3414 22.7847 31.7177 22.7554C31.9954 22.7337 32.4146 22.5522 32.4327 22.281C32.4327 21.9905 32.4279 19.6959 32.4146 18.405C34.1249 18.4152 35.8737 18.4162 37.584 18.4079C37.584 18.7611 37.584 19.9546 37.6052 20.234Z" fill="#FE800A"/>
<path d="M21.8011 14.7366C22.046 14.7314 22.2875 14.7943 22.4978 14.9183C22.91 15.1581 23.0602 15.5274 23.1757 15.9606C23.1191 16.1406 23.0621 16.3363 22.9664 16.5C22.7437 16.8814 22.3637 17.0141 21.9559 17.1209C21.7093 17.1229 21.4232 17.0308 21.2139 16.9034C20.9376 16.7352 20.7264 16.459 20.659 16.1431C20.5977 15.8567 20.6799 15.5759 20.8443 15.3373C21.0733 15.0051 21.4078 14.8144 21.8011 14.7366Z" fill="#FEFEFE"/>
<path d="M27.4988 14.741C28.1513 14.6987 28.7186 15.1785 28.7767 15.8219C28.8349 16.4652 28.3625 17.0368 27.7128 17.1093C27.2787 17.1577 26.8521 16.97 26.5982 16.619C26.3442 16.2679 26.3027 15.8085 26.4898 15.4185C26.6767 15.0285 27.0629 14.7692 27.4988 14.741Z" fill="#FEFEFE"/>
<path d="M17.496 15.8827C17.496 16.5806 16.9232 17.1464 16.2167 17.1464C15.5101 17.1464 14.9374 16.5806 14.9374 15.8827C14.9374 15.1847 15.5101 14.619 16.2167 14.619C16.9232 14.619 17.496 15.1847 17.496 15.8827Z" fill="#FEFEFE"/>
<path d="M23.1818 15.8827C23.1818 16.5806 22.609 17.1464 21.9025 17.1464C21.1959 17.1464 20.6232 16.5806 20.6232 15.8827C20.6232 15.1847 21.1959 14.619 21.9025 14.619C22.609 14.619 23.1818 15.1847 23.1818 15.8827Z" fill="#FEFEFE"/>
<path d="M28.8676 15.8827C28.8676 16.5806 28.2948 17.1464 27.5882 17.1464C26.8817 17.1464 26.3089 16.5806 26.3089 15.8827C26.3089 15.1847 26.8817 14.619 27.5882 14.619C28.2948 14.619 28.8676 15.1847 28.8676 15.8827Z" fill="#FEFEFE"/>
<path d="M55.9181 32.384C53.6781 32.384 51.7474 31.904 50.1261 30.944C48.5261 29.9627 47.2888 28.608 46.4141 26.88C45.5608 25.1307 45.1341 23.1147 45.1341 20.832C45.1341 18.5493 45.5608 16.5333 46.4141 14.784C47.2888 13.0347 48.5261 11.6693 50.1261 10.688C51.7474 9.70667 53.6781 9.216 55.9181 9.216C58.6274 9.216 60.8461 9.888 62.5741 11.232C64.3021 12.576 65.3794 14.4747 65.8061 16.928H61.1021C60.8248 15.7333 60.2381 14.8053 59.3421 14.144C58.4674 13.4613 57.3154 13.12 55.8861 13.12C54.5634 13.12 53.4221 13.44 52.4621 14.08C51.5234 14.6987 50.7981 15.584 50.2861 16.736C49.7741 17.8667 49.5181 19.232 49.5181 20.832C49.5181 22.4107 49.7741 23.776 50.2861 24.928C50.7981 26.08 51.5234 26.9653 52.4621 27.584C53.4221 28.2027 54.5634 28.512 55.8861 28.512C57.3154 28.512 58.4674 28.2027 59.3421 27.584C60.2168 26.944 60.7928 26.0587 61.0701 24.928H65.8061C65.3794 27.2533 64.3021 29.0773 62.5741 30.4C60.8461 31.7227 58.6274 32.384 55.9181 32.384ZM73.5591 32.384C72.2151 32.384 71.1058 32.1707 70.2311 31.744C69.3564 31.296 68.7058 30.7093 68.2791 29.984C67.8738 29.2373 67.6711 28.416 67.6711 27.52C67.6711 26.5387 67.9164 25.6747 68.4071 24.928C68.9191 24.1813 69.6764 23.5947 70.6791 23.168C71.7031 22.7413 72.9831 22.528 74.5191 22.528H78.5191C78.5191 21.7387 78.4124 21.088 78.1991 20.576C77.9858 20.0427 77.6551 19.648 77.2071 19.392C76.7591 19.136 76.1618 19.008 75.4151 19.008C74.6044 19.008 73.9111 19.1893 73.3351 19.552C72.7804 19.8933 72.4391 20.4267 72.3111 21.152H68.1191C68.2258 20 68.5991 19.008 69.2391 18.176C69.9004 17.3227 70.7644 16.6613 71.8311 16.192C72.9191 15.7227 74.1244 15.488 75.4471 15.488C76.9618 15.488 78.2738 15.744 79.3831 16.256C80.4924 16.768 81.3458 17.504 81.9431 18.464C82.5404 19.424 82.8391 20.608 82.8391 22.016V32H79.1911L78.7111 29.536C78.4764 29.9627 78.1991 30.3467 77.8791 30.688C77.5591 31.0293 77.1858 31.328 76.7591 31.584C76.3324 31.84 75.8524 32.032 75.3191 32.16C74.7858 32.3093 74.1991 32.384 73.5591 32.384ZM74.5831 29.056C75.1378 29.056 75.6284 28.96 76.0551 28.768C76.5031 28.5547 76.8871 28.2773 77.2071 27.936C77.5271 27.5733 77.7724 27.168 77.9431 26.72C78.1351 26.2507 78.2631 25.7493 78.3271 25.216V25.184H75.0311C74.3698 25.184 73.8258 25.2693 73.3991 25.44C72.9938 25.5893 72.6951 25.8133 72.5031 26.112C72.3111 26.4107 72.2151 26.752 72.2151 27.136C72.2151 27.5627 72.3111 27.9147 72.5031 28.192C72.6951 28.4693 72.9724 28.6827 73.3351 28.832C73.6978 28.9813 74.1138 29.056 74.5831 29.056ZM85.5891 39.04V15.872H89.4291L89.9091 18.112C90.2504 17.6427 90.6558 17.216 91.1251 16.832C91.5944 16.4267 92.1491 16.1067 92.7891 15.872C93.4504 15.616 94.2184 15.488 95.0931 15.488C96.6078 15.488 97.9411 15.8613 99.0931 16.608C100.245 17.3547 101.152 18.368 101.813 19.648C102.496 20.9067 102.837 22.3467 102.837 23.968C102.837 25.5893 102.496 27.04 101.813 28.32C101.13 29.5787 100.213 30.5707 99.0611 31.296C97.9091 32.0213 96.5971 32.384 95.1251 32.384C93.9304 32.384 92.8958 32.1707 92.0211 31.744C91.1678 31.296 90.4638 30.688 89.9091 29.92V39.04H85.5891ZM94.1011 28.608C94.9544 28.608 95.7011 28.416 96.3411 28.032C97.0024 27.648 97.5144 27.104 97.8771 26.4C98.2398 25.696 98.4211 24.8853 98.4211 23.968C98.4211 23.0507 98.2398 22.24 97.8771 21.536C97.5144 20.8107 97.0024 20.256 96.3411 19.872C95.7011 19.4667 94.9544 19.264 94.1011 19.264C93.2691 19.264 92.5224 19.4667 91.8611 19.872C91.2211 20.256 90.7091 20.8 90.3251 21.504C89.9624 22.208 89.7811 23.0187 89.7811 23.936C89.7811 24.8533 89.9624 25.6747 90.3251 26.4C90.7091 27.104 91.2211 27.648 91.8611 28.032C92.5224 28.416 93.2691 28.608 94.1011 28.608ZM111.917 32C110.786 32 109.794 31.8293 108.941 31.488C108.109 31.1253 107.458 30.5387 106.989 29.728C106.52 28.896 106.285 27.7653 106.285 26.336V19.488H103.533V15.872H106.285L106.765 11.488H110.605V15.872H114.861V19.488H110.605V26.4C110.605 27.1253 110.765 27.6267 111.085 27.904C111.405 28.1813 111.949 28.32 112.717 28.32H114.829V32H111.917ZM117.313 32V15.872H121.633V32H117.313ZM119.489 13.664C118.721 13.664 118.081 13.44 117.569 12.992C117.078 12.5227 116.833 11.936 116.833 11.232C116.833 10.528 117.078 9.952 117.569 9.504C118.081 9.03467 118.721 8.8 119.489 8.8C120.278 8.8 120.918 9.03467 121.409 9.504C121.921 9.952 122.177 10.528 122.177 11.232C122.177 11.936 121.921 12.5227 121.409 12.992C120.918 13.44 120.278 13.664 119.489 13.664ZM132.334 32.384C130.798 32.384 129.411 32.032 128.174 31.328C126.958 30.6027 125.987 29.6107 125.262 28.352C124.558 27.072 124.206 25.6107 124.206 23.968C124.206 22.2827 124.558 20.8107 125.262 19.552C125.987 18.272 126.969 17.28 128.206 16.576C129.443 15.8507 130.83 15.488 132.366 15.488C133.923 15.488 135.31 15.8507 136.526 16.576C137.763 17.28 138.734 18.272 139.438 19.552C140.163 20.8107 140.526 22.272 140.526 23.936C140.526 25.6 140.163 27.072 139.438 28.352C138.734 29.6107 137.763 30.6027 136.526 31.328C135.289 32.032 133.891 32.384 132.334 32.384ZM132.334 28.64C133.059 28.64 133.699 28.4693 134.254 28.128C134.83 27.7867 135.278 27.264 135.598 26.56C135.939 25.856 136.11 24.9813 136.11 23.936C136.11 22.8907 135.939 22.0267 135.598 21.344C135.278 20.64 134.83 20.1173 134.254 19.776C133.699 19.4133 133.07 19.232 132.366 19.232C131.683 19.232 131.054 19.4133 130.478 19.776C129.902 20.1173 129.443 20.64 129.102 21.344C128.782 22.0267 128.622 22.8907 128.622 23.936C128.622 24.9813 128.782 25.856 129.102 26.56C129.443 27.264 129.891 27.7867 130.446 28.128C131.022 28.4693 131.651 28.64 132.334 28.64ZM142.969 32V15.872H146.777L147.097 18.496C147.588 17.6 148.281 16.8747 149.177 16.32C150.094 15.7653 151.182 15.488 152.441 15.488C153.785 15.488 154.916 15.7653 155.833 16.32C156.75 16.8747 157.444 17.6853 157.913 18.752C158.404 19.8187 158.649 21.1307 158.649 22.688V32H154.361V23.104C154.361 21.824 154.084 20.8427 153.529 20.16C152.996 19.4773 152.164 19.136 151.033 19.136C150.308 19.136 149.657 19.3067 149.081 19.648C148.526 19.9893 148.089 20.48 147.769 21.12C147.449 21.7387 147.289 22.496 147.289 23.392V32H142.969ZM171.583 32.384C169.343 32.384 167.412 31.904 165.791 30.944C164.191 29.9627 162.954 28.608 162.079 26.88C161.226 25.1307 160.799 23.1147 160.799 20.832C160.799 18.5493 161.226 16.5333 162.079 14.784C162.954 13.0347 164.191 11.6693 165.791 10.688C167.412 9.70667 169.343 9.216 171.583 9.216C174.292 9.216 176.511 9.888 178.239 11.232C179.967 12.576 181.044 14.4747 181.471 16.928H176.767C176.49 15.7333 175.903 14.8053 175.007 14.144C174.132 13.4613 172.98 13.12 171.551 13.12C170.228 13.12 169.087 13.44 168.127 14.08C167.188 14.6987 166.463 15.584 165.951 16.736C165.439 17.8667 165.183 19.232 165.183 20.832C165.183 22.4107 165.439 23.776 165.951 24.928C166.463 26.08 167.188 26.9653 168.127 27.584C169.087 28.2027 170.228 28.512 171.551 28.512C172.98 28.512 174.132 28.2027 175.007 27.584C175.882 26.944 176.458 26.0587 176.735 24.928H181.471C181.044 27.2533 179.967 29.0773 178.239 30.4C176.511 31.7227 174.292 32.384 171.583 32.384ZM191.4 32.384C189.864 32.384 188.477 32.032 187.24 31.328C186.024 30.6027 185.053 29.6107 184.328 28.352C183.624 27.072 183.272 25.6107 183.272 23.968C183.272 22.2827 183.624 20.8107 184.328 19.552C185.053 18.272 186.035 17.28 187.272 16.576C188.509 15.8507 189.896 15.488 191.432 15.488C192.989 15.488 194.376 15.8507 195.592 16.576C196.829 17.28 197.8 18.272 198.504 19.552C199.229 20.8107 199.592 22.272 199.592 23.936C199.592 25.6 199.229 27.072 198.504 28.352C197.8 29.6107 196.829 30.6027 195.592 31.328C194.355 32.032 192.957 32.384 191.4 32.384ZM191.4 28.64C192.125 28.64 192.765 28.4693 193.32 28.128C193.896 27.7867 194.344 27.264 194.664 26.56C195.005 25.856 195.176 24.9813 195.176 23.936C195.176 22.8907 195.005 22.0267 194.664 21.344C194.344 20.64 193.896 20.1173 193.32 19.776C192.765 19.4133 192.136 19.232 191.432 19.232C190.749 19.232 190.12 19.4133 189.544 19.776C188.968 20.1173 188.509 20.64 188.168 21.344C187.848 22.0267 187.688 22.8907 187.688 23.936C187.688 24.9813 187.848 25.856 188.168 26.56C188.509 27.264 188.957 27.7867 189.512 28.128C190.088 28.4693 190.717 28.64 191.4 28.64ZM202.035 32V15.872H205.875L206.291 18.848C206.675 18.144 207.155 17.5467 207.731 17.056C208.329 16.5653 209.001 16.1813 209.747 15.904C210.515 15.6267 211.358 15.488 212.275 15.488V20.064H210.803C210.163 20.064 209.566 20.1387 209.011 20.288C208.478 20.4373 208.009 20.6827 207.603 21.024C207.198 21.344 206.889 21.792 206.675 22.368C206.462 22.944 206.355 23.6693 206.355 24.544V32H202.035ZM221.343 32.384C219.722 32.384 218.282 32.0427 217.023 31.36C215.786 30.656 214.815 29.6853 214.111 28.448C213.428 27.1893 213.087 25.7387 213.087 24.096C213.087 22.4107 213.428 20.928 214.111 19.648C214.815 18.3467 215.786 17.3333 217.023 16.608C218.26 15.8613 219.7 15.488 221.343 15.488C222.943 15.488 224.34 15.84 225.535 16.544C226.73 17.248 227.658 18.1973 228.319 19.392C228.98 20.5867 229.311 21.9413 229.311 23.456C229.311 23.6693 229.311 23.9147 229.311 24.192C229.311 24.448 229.29 24.7147 229.247 24.992H216.159V22.368H224.959C224.895 21.3227 224.522 20.5013 223.839 19.904C223.178 19.3067 222.346 19.008 221.343 19.008C220.618 19.008 219.946 19.1787 219.327 19.52C218.708 19.84 218.218 20.3413 217.855 21.024C217.514 21.7067 217.343 22.5707 217.343 23.616V24.544C217.343 25.4187 217.503 26.1867 217.823 26.848C218.164 27.488 218.634 27.9893 219.231 28.352C219.828 28.6933 220.522 28.864 221.311 28.864C222.1 28.864 222.751 28.6933 223.263 28.352C223.796 28.0107 224.191 27.5733 224.447 27.04H228.863C228.564 28.0427 228.063 28.9493 227.359 29.76C226.655 30.5707 225.791 31.2107 224.767 31.68C223.743 32.1493 222.602 32.384 221.343 32.384Z" fill="white"/>
</svg>
