<svg width="246" height="42" viewBox="0 0 246 42" fill="none" xmlns="http://www.w3.org/2000/svg">
<path d="M3.58097 33.0237C3.13764 32.4697 2.54868 32.0149 2.07006 31.4878C0.786624 30.0738 0.0694189 28.0915 0.0145369 26.2049C-0.014418 25.2101 0.0088084 24.2083 0.0089079 23.2128L0.0080696 13.7359C0.00724516 12.3399 -0.0632016 10.9417 0.277093 9.57379C0.637486 8.12508 1.44414 6.7929 2.48181 5.71569C3.64756 4.5055 5.42795 3.63217 7.0706 3.28791C7.91984 3.10994 8.96205 3.03874 9.83609 3.01873C11.6352 2.97756 13.4447 3.01711 15.2451 3.01704L31.598 3.01488C33.3316 3.01454 35.0928 2.92658 36.8006 3.27515C38.3804 3.59759 39.9986 4.45242 41.1606 5.55643C41.7776 6.14241 42.3019 6.85842 42.7051 7.60264C43.0345 8.21132 43.3139 8.83993 43.4722 9.51437C43.6802 10.4002 43.6533 11.2957 43.6532 12.1979C43.6482 13.0226 43.6512 13.8473 43.6621 14.6719C41.631 14.6452 39.5962 14.6699 37.5647 14.6698C37.4433 15.1088 35.7694 12.8945 35.8314 13.3484C35.0042 13.274 34.6621 12.3474 33.8314 12.3484C32.967 12.3494 33.6843 11.8457 32.8314 11.8484C32.8368 11.2887 32.59 11.8582 32.4922 11.3484C32.8814 8.7745 31.6266 11.4786 31.5076 11.3484C31.3972 11.2276 29.4986 11.8562 29.3314 11.8484C28.4866 11.8088 28.1649 12.3483 27.3186 12.3484H23.8314C19.9724 12.3497 12.3314 12.3484 12.3314 12.3484C12.3314 12.3484 10.529 12.6726 10.3314 12.8484C10.1338 13.0242 9.85484 14.1302 9.83139 14.3484C9.73587 15.2389 9.33068 16.9252 9.33139 17.8484C9.33253 19.3905 9.28846 20.8078 9.33139 22.3484C9.34063 22.6788 9.57311 24.6076 9.83139 24.8484C10.0305 25.0339 12.0671 25.3179 12.3314 25.3484C12.782 25.4004 13.8782 25.3499 14.3314 25.3484H23.8314C25.0037 25.3484 26.0928 25.4186 27.244 25.482C27.4597 25.4938 28.1256 25.7818 28.3314 25.8484C29.0506 26.0812 31.4551 26.8778 31.8314 26.8484C32.1091 26.8268 33.6421 26.03 33.8314 25.8484C33.7914 24.5583 35.2481 24.2918 33.8314 22.8484C35.5417 22.8587 34.6211 23.8567 36.3314 23.8484C36.2917 24.1723 37.4309 22.9593 37.5665 23.234C39.5912 23.194 41.6247 23.2331 43.6505 23.2334C43.6505 24.8501 43.7299 26.504 43.3747 28.1203C42.9439 30.0799 41.6375 32.0354 39.9153 33.1193C39.1568 33.5967 38.2545 33.9326 37.3631 34.0535C36.5139 34.1688 35.6321 34.1247 34.7761 34.1237L14.6886 34.1182C14.2313 34.1179 13.642 34.0534 13.2007 34.1519C12.6224 34.2808 11.5447 34.9747 11.0018 35.2761C9.67746 36.0111 8.32126 36.681 6.98606 37.3971C6.29321 37.7686 5.30066 38.4119 4.57747 38.658C4.3693 38.7289 4.05739 38.7097 3.84602 38.66C3.5104 38.5811 3.18503 38.29 3.01075 38.0045C2.87311 37.7792 2.81486 37.5399 2.8093 37.278C2.79305 36.5118 3.36688 33.8485 3.58097 33.0237Z" fill="#FEFEFE"/>
<path d="M37.6052 23.234C37.6208 24.0713 37.588 24.9087 37.584 25.7459C37.5719 26.6173 37.3395 27.3553 36.6936 27.9724C36.3169 28.3325 35.8552 28.6119 35.3276 28.6804C34.5677 28.779 33.4359 28.711 32.6341 28.7111L26.672 28.6885L14.2141 28.6877C12.4838 28.6869 10.7477 28.7186 9.01791 28.692C8.1838 28.6793 7.52304 28.4535 6.93855 27.852C6.54712 27.4559 6.28738 26.9511 6.19398 26.4052C6.09108 25.7935 6.13884 25.129 6.13969 24.5099L6.14238 21.5536L6.13914 15.4996C6.13863 14.4113 6.1201 13.3194 6.1446 12.2314C6.16381 11.3778 6.39035 10.6717 7.03044 10.071C7.32799 9.79173 7.83498 9.44191 8.24436 9.37571C9.38023 9.19197 10.5983 9.28006 11.7492 9.28009L28.8448 9.28048C30.7952 9.28041 32.7586 9.22816 34.7073 9.2849C35.5219 9.30862 36.2775 9.5756 36.8424 10.1767C37.6359 11.0211 37.5891 11.9305 37.5864 12.9971C37.59 13.5547 37.5826 14.1124 37.5647 14.6698C37.5647 15.1618 37.5384 16.176 37.5384 16.6361C36.6913 16.6316 35.8542 16.6378 35.0236 16.6387C34.1592 16.6397 33.274 16.6361 32.4212 16.6361C32.4266 16.0764 32.4212 15.0916 32.4028 14.5917C32.3701 14.4208 32.2998 14.2562 32.1808 14.1261C32.0704 14.0052 31.6748 13.9827 31.5076 13.9749C30.6628 13.9354 29.8009 13.9685 28.9545 13.9686L24.07 13.9699C20.2111 13.9711 16.3432 13.9142 12.4852 13.9706C12.227 13.9744 11.7332 13.9734 11.5356 14.1492C11.2416 14.3895 11.2914 14.7386 11.2679 14.9568C11.2679 15.8638 11.2409 17.0468 11.2416 17.97C11.2416 19.5145 11.2044 21.0593 11.2473 22.5999C11.2565 22.9303 11.2965 23.3889 11.5548 23.6297C11.7539 23.8152 12.0454 23.8876 12.3097 23.9181C12.7603 23.97 13.2322 23.9433 13.6854 23.9418L15.9955 23.9365L23.6137 23.9397C24.786 23.9397 26.1674 23.8761 27.3186 23.9394C27.5342 23.9512 27.7499 23.982 27.9557 24.0485C28.6749 24.2813 31.3414 25.7847 31.7177 25.7554C31.9954 25.7337 32.4146 25.5522 32.4327 25.281C32.4327 24.9905 32.4278 22.6959 32.4146 21.405C34.1249 21.4152 35.8737 21.4162 37.584 21.4079C37.584 21.7611 37.584 22.9546 37.6052 23.234Z" fill="#FE800A"/>
<path d="M21.8011 17.7366C22.046 17.7314 22.2875 17.7943 22.4978 17.9183C22.91 18.1581 23.0602 18.5274 23.1757 18.9606C23.1191 19.1406 23.0621 19.3363 22.9664 19.5C22.7437 19.8814 22.3637 20.0141 21.9559 20.1209C21.7093 20.1229 21.4232 20.0308 21.2139 19.9034C20.9376 19.7352 20.7264 19.459 20.659 19.1431C20.5977 18.8567 20.6799 18.5759 20.8443 18.3373C21.0733 18.0051 21.4078 17.8144 21.8011 17.7366Z" fill="#FEFEFE"/>
<path d="M27.4988 17.741C28.1513 17.6987 28.7186 18.1785 28.7767 18.8219C28.8349 19.4652 28.3625 20.0368 27.7128 20.1093C27.2787 20.1577 26.8521 19.97 26.5982 19.619C26.3442 19.2679 26.3027 18.8085 26.4898 18.4185C26.6767 18.0285 27.0629 17.7692 27.4988 17.741Z" fill="#FEFEFE"/>
<path d="M17.496 18.8827C17.496 19.5806 16.9232 20.1464 16.2167 20.1464C15.5101 20.1464 14.9374 19.5806 14.9374 18.8827C14.9374 18.1847 15.5101 17.619 16.2167 17.619C16.9232 17.619 17.496 18.1847 17.496 18.8827Z" fill="#FEFEFE"/>
<path d="M23.1818 18.8827C23.1818 19.5806 22.609 20.1464 21.9025 20.1464C21.1959 20.1464 20.6232 19.5806 20.6232 18.8827C20.6232 18.1847 21.1959 17.619 21.9025 17.619C22.609 17.619 23.1818 18.1847 23.1818 18.8827Z" fill="#FEFEFE"/>
<path d="M28.8676 18.8827C28.8676 19.5806 28.2948 20.1464 27.5882 20.1464C26.8817 20.1464 26.3089 19.5806 26.3089 18.8827C26.3089 18.1847 26.8817 17.619 27.5882 17.619C28.2948 17.619 28.8676 18.1847 28.8676 18.8827Z" fill="#FEFEFE"/>
<path d="M69.9181 32.384C67.6781 32.384 65.7474 31.904 64.1261 30.944C62.5261 29.9627 61.2888 28.608 60.4141 26.88C59.5608 25.1307 59.1341 23.1147 59.1341 20.832C59.1341 18.5493 59.5608 16.5333 60.4141 14.784C61.2888 13.0347 62.5261 11.6693 64.1261 10.688C65.7474 9.70667 67.6781 9.216 69.9181 9.216C72.6274 9.216 74.8461 9.888 76.5741 11.232C78.3021 12.576 79.3794 14.4747 79.8061 16.928H75.1021C74.8248 15.7333 74.2381 14.8053 73.3421 14.144C72.4674 13.4613 71.3154 13.12 69.8861 13.12C68.5634 13.12 67.4221 13.44 66.4621 14.08C65.5234 14.6987 64.7981 15.584 64.2861 16.736C63.7741 17.8667 63.5181 19.232 63.5181 20.832C63.5181 22.4107 63.7741 23.776 64.2861 24.928C64.7981 26.08 65.5234 26.9653 66.4621 27.584C67.4221 28.2027 68.5634 28.512 69.8861 28.512C71.3154 28.512 72.4674 28.2027 73.3421 27.584C74.2168 26.944 74.7928 26.0587 75.0701 24.928H79.8061C79.3794 27.2533 78.3021 29.0773 76.5741 30.4C74.8461 31.7227 72.6274 32.384 69.9181 32.384ZM87.5591 32.384C86.2151 32.384 85.1058 32.1707 84.2311 31.744C83.3564 31.296 82.7058 30.7093 82.2791 29.984C81.8738 29.2373 81.6711 28.416 81.6711 27.52C81.6711 26.5387 81.9164 25.6747 82.4071 24.928C82.9191 24.1813 83.6764 23.5947 84.6791 23.168C85.7031 22.7413 86.9831 22.528 88.5191 22.528H92.5191C92.5191 21.7387 92.4124 21.088 92.1991 20.576C91.9858 20.0427 91.6551 19.648 91.2071 19.392C90.7591 19.136 90.1618 19.008 89.4151 19.008C88.6044 19.008 87.9111 19.1893 87.3351 19.552C86.7804 19.8933 86.4391 20.4267 86.3111 21.152H82.1191C82.2258 20 82.5991 19.008 83.2391 18.176C83.9004 17.3227 84.7644 16.6613 85.8311 16.192C86.9191 15.7227 88.1244 15.488 89.4471 15.488C90.9618 15.488 92.2738 15.744 93.3831 16.256C94.4924 16.768 95.3458 17.504 95.9431 18.464C96.5404 19.424 96.8391 20.608 96.8391 22.016V32H93.1911L92.7111 29.536C92.4764 29.9627 92.1991 30.3467 91.8791 30.688C91.5591 31.0293 91.1858 31.328 90.7591 31.584C90.3324 31.84 89.8524 32.032 89.3191 32.16C88.7858 32.3093 88.1991 32.384 87.5591 32.384ZM88.5831 29.056C89.1378 29.056 89.6284 28.96 90.0551 28.768C90.5031 28.5547 90.8871 28.2773 91.2071 27.936C91.5271 27.5733 91.7724 27.168 91.9431 26.72C92.1351 26.2507 92.2631 25.7493 92.3271 25.216V25.184H89.0311C88.3698 25.184 87.8258 25.2693 87.3991 25.44C86.9938 25.5893 86.6951 25.8133 86.5031 26.112C86.3111 26.4107 86.2151 26.752 86.2151 27.136C86.2151 27.5627 86.3111 27.9147 86.5031 28.192C86.6951 28.4693 86.9724 28.6827 87.3351 28.832C87.6978 28.9813 88.1138 29.056 88.5831 29.056ZM99.5891 39.04V15.872H103.429L103.909 18.112C104.25 17.6427 104.656 17.216 105.125 16.832C105.594 16.4267 106.149 16.1067 106.789 15.872C107.45 15.616 108.218 15.488 109.093 15.488C110.608 15.488 111.941 15.8613 113.093 16.608C114.245 17.3547 115.152 18.368 115.813 19.648C116.496 20.9067 116.837 22.3467 116.837 23.968C116.837 25.5893 116.496 27.04 115.813 28.32C115.13 29.5787 114.213 30.5707 113.061 31.296C111.909 32.0213 110.597 32.384 109.125 32.384C107.93 32.384 106.896 32.1707 106.021 31.744C105.168 31.296 104.464 30.688 103.909 29.92V39.04H99.5891ZM108.101 28.608C108.954 28.608 109.701 28.416 110.341 28.032C111.002 27.648 111.514 27.104 111.877 26.4C112.24 25.696 112.421 24.8853 112.421 23.968C112.421 23.0507 112.24 22.24 111.877 21.536C111.514 20.8107 111.002 20.256 110.341 19.872C109.701 19.4667 108.954 19.264 108.101 19.264C107.269 19.264 106.522 19.4667 105.861 19.872C105.221 20.256 104.709 20.8 104.325 21.504C103.962 22.208 103.781 23.0187 103.781 23.936C103.781 24.8533 103.962 25.6747 104.325 26.4C104.709 27.104 105.221 27.648 105.861 28.032C106.522 28.416 107.269 28.608 108.101 28.608ZM125.917 32C124.786 32 123.794 31.8293 122.941 31.488C122.109 31.1253 121.458 30.5387 120.989 29.728C120.52 28.896 120.285 27.7653 120.285 26.336V19.488H117.533V15.872H120.285L120.765 11.488H124.605V15.872H128.861V19.488H124.605V26.4C124.605 27.1253 124.765 27.6267 125.085 27.904C125.405 28.1813 125.949 28.32 126.717 28.32H128.829V32H125.917ZM131.313 32V15.872H135.633V32H131.313ZM133.489 13.664C132.721 13.664 132.081 13.44 131.569 12.992C131.078 12.5227 130.833 11.936 130.833 11.232C130.833 10.528 131.078 9.952 131.569 9.504C132.081 9.03467 132.721 8.8 133.489 8.8C134.278 8.8 134.918 9.03467 135.409 9.504C135.921 9.952 136.177 10.528 136.177 11.232C136.177 11.936 135.921 12.5227 135.409 12.992C134.918 13.44 134.278 13.664 133.489 13.664ZM146.334 32.384C144.798 32.384 143.411 32.032 142.174 31.328C140.958 30.6027 139.987 29.6107 139.262 28.352C138.558 27.072 138.206 25.6107 138.206 23.968C138.206 22.2827 138.558 20.8107 139.262 19.552C139.987 18.272 140.969 17.28 142.206 16.576C143.443 15.8507 144.83 15.488 146.366 15.488C147.923 15.488 149.31 15.8507 150.526 16.576C151.763 17.28 152.734 18.272 153.438 19.552C154.163 20.8107 154.526 22.272 154.526 23.936C154.526 25.6 154.163 27.072 153.438 28.352C152.734 29.6107 151.763 30.6027 150.526 31.328C149.289 32.032 147.891 32.384 146.334 32.384ZM146.334 28.64C147.059 28.64 147.699 28.4693 148.254 28.128C148.83 27.7867 149.278 27.264 149.598 26.56C149.939 25.856 150.11 24.9813 150.11 23.936C150.11 22.8907 149.939 22.0267 149.598 21.344C149.278 20.64 148.83 20.1173 148.254 19.776C147.699 19.4133 147.07 19.232 146.366 19.232C145.683 19.232 145.054 19.4133 144.478 19.776C143.902 20.1173 143.443 20.64 143.102 21.344C142.782 22.0267 142.622 22.8907 142.622 23.936C142.622 24.9813 142.782 25.856 143.102 26.56C143.443 27.264 143.891 27.7867 144.446 28.128C145.022 28.4693 145.651 28.64 146.334 28.64ZM156.969 32V15.872H160.777L161.097 18.496C161.588 17.6 162.281 16.8747 163.177 16.32C164.094 15.7653 165.182 15.488 166.441 15.488C167.785 15.488 168.916 15.7653 169.833 16.32C170.75 16.8747 171.444 17.6853 171.913 18.752C172.404 19.8187 172.649 21.1307 172.649 22.688V32H168.361V23.104C168.361 21.824 168.084 20.8427 167.529 20.16C166.996 19.4773 166.164 19.136 165.033 19.136C164.308 19.136 163.657 19.3067 163.081 19.648C162.526 19.9893 162.089 20.48 161.769 21.12C161.449 21.7387 161.289 22.496 161.289 23.392V32H156.969ZM185.583 32.384C183.343 32.384 181.412 31.904 179.791 30.944C178.191 29.9627 176.954 28.608 176.079 26.88C175.226 25.1307 174.799 23.1147 174.799 20.832C174.799 18.5493 175.226 16.5333 176.079 14.784C176.954 13.0347 178.191 11.6693 179.791 10.688C181.412 9.70667 183.343 9.216 185.583 9.216C188.292 9.216 190.511 9.888 192.239 11.232C193.967 12.576 195.044 14.4747 195.471 16.928H190.767C190.49 15.7333 189.903 14.8053 189.007 14.144C188.132 13.4613 186.98 13.12 185.551 13.12C184.228 13.12 183.087 13.44 182.127 14.08C181.188 14.6987 180.463 15.584 179.951 16.736C179.439 17.8667 179.183 19.232 179.183 20.832C179.183 22.4107 179.439 23.776 179.951 24.928C180.463 26.08 181.188 26.9653 182.127 27.584C183.087 28.2027 184.228 28.512 185.551 28.512C186.98 28.512 188.132 28.2027 189.007 27.584C189.882 26.944 190.458 26.0587 190.735 24.928H195.471C195.044 27.2533 193.967 29.0773 192.239 30.4C190.511 31.7227 188.292 32.384 185.583 32.384ZM205.4 32.384C203.864 32.384 202.477 32.032 201.24 31.328C200.024 30.6027 199.053 29.6107 198.328 28.352C197.624 27.072 197.272 25.6107 197.272 23.968C197.272 22.2827 197.624 20.8107 198.328 19.552C199.053 18.272 200.035 17.28 201.272 16.576C202.509 15.8507 203.896 15.488 205.432 15.488C206.989 15.488 208.376 15.8507 209.592 16.576C210.829 17.28 211.8 18.272 212.504 19.552C213.229 20.8107 213.592 22.272 213.592 23.936C213.592 25.6 213.229 27.072 212.504 28.352C211.8 29.6107 210.829 30.6027 209.592 31.328C208.355 32.032 206.957 32.384 205.4 32.384ZM205.4 28.64C206.125 28.64 206.765 28.4693 207.32 28.128C207.896 27.7867 208.344 27.264 208.664 26.56C209.005 25.856 209.176 24.9813 209.176 23.936C209.176 22.8907 209.005 22.0267 208.664 21.344C208.344 20.64 207.896 20.1173 207.32 19.776C206.765 19.4133 206.136 19.232 205.432 19.232C204.749 19.232 204.12 19.4133 203.544 19.776C202.968 20.1173 202.509 20.64 202.168 21.344C201.848 22.0267 201.688 22.8907 201.688 23.936C201.688 24.9813 201.848 25.856 202.168 26.56C202.509 27.264 202.957 27.7867 203.512 28.128C204.088 28.4693 204.717 28.64 205.4 28.64ZM216.035 32V15.872H219.875L220.291 18.848C220.675 18.144 221.155 17.5467 221.731 17.056C222.329 16.5653 223.001 16.1813 223.747 15.904C224.515 15.6267 225.358 15.488 226.275 15.488V20.064H224.803C224.163 20.064 223.566 20.1387 223.011 20.288C222.478 20.4373 222.009 20.6827 221.603 21.024C221.198 21.344 220.889 21.792 220.675 22.368C220.462 22.944 220.355 23.6693 220.355 24.544V32H216.035ZM235.343 32.384C233.722 32.384 232.282 32.0427 231.023 31.36C229.786 30.656 228.815 29.6853 228.111 28.448C227.428 27.1893 227.087 25.7387 227.087 24.096C227.087 22.4107 227.428 20.928 228.111 19.648C228.815 18.3467 229.786 17.3333 231.023 16.608C232.26 15.8613 233.7 15.488 235.343 15.488C236.943 15.488 238.34 15.84 239.535 16.544C240.73 17.248 241.658 18.1973 242.319 19.392C242.98 20.5867 243.311 21.9413 243.311 23.456C243.311 23.6693 243.311 23.9147 243.311 24.192C243.311 24.448 243.29 24.7147 243.247 24.992H230.159V22.368H238.959C238.895 21.3227 238.522 20.5013 237.839 19.904C237.178 19.3067 236.346 19.008 235.343 19.008C234.618 19.008 233.946 19.1787 233.327 19.52C232.708 19.84 232.218 20.3413 231.855 21.024C231.514 21.7067 231.343 22.5707 231.343 23.616V24.544C231.343 25.4187 231.503 26.1867 231.823 26.848C232.164 27.488 232.634 27.9893 233.231 28.352C233.828 28.6933 234.522 28.864 235.311 28.864C236.1 28.864 236.751 28.6933 237.263 28.352C237.796 28.0107 238.191 27.5733 238.447 27.04H242.863C242.564 28.0427 242.063 28.9493 241.359 29.76C240.655 30.5707 239.791 31.2107 238.767 31.68C237.743 32.1493 236.602 32.384 235.343 32.384Z" fill="white"/>
</svg>
