<svg width="60" height="60" viewBox="0 0 60 60" fill="none" xmlns="http://www.w3.org/2000/svg">
<rect width="60" height="60" rx="30" fill="#FE800A" fill-opacity="0.26"/>
<path d="M15.931 22.9655C15.931 21.0255 17.5083 19.4483 19.4483 19.4483H40.5517C42.4917 19.4483 44.069 21.0255 44.069 22.9655V37.0345C44.069 38.9745 42.4917 40.5517 40.5517 40.5517H19.4483C17.5083 40.5517 15.931 38.9745 15.931 37.0345V22.9655ZM24.2845 27.3621H26.0431C26.2849 27.3621 26.4828 27.5599 26.4828 27.8017C26.4828 28.5326 27.0708 29.1207 27.8017 29.1207C28.5327 29.1207 29.1207 28.5326 29.1207 27.8017C29.1207 26.1036 27.7413 24.7241 26.0431 24.7241H24.2845C22.5863 24.7241 21.2069 26.1036 21.2069 27.8017V32.1983C21.2069 33.8964 22.5863 35.2759 24.2845 35.2759H26.0431C27.7413 35.2759 29.1207 33.8964 29.1207 32.1983C29.1207 31.4673 28.5327 30.8793 27.8017 30.8793C27.0708 30.8793 26.4828 31.4673 26.4828 32.1983C26.4828 32.4401 26.2849 32.6379 26.0431 32.6379H24.2845C24.0427 32.6379 23.8448 32.4401 23.8448 32.1983V27.8017C23.8448 27.5599 24.0427 27.3621 24.2845 27.3621ZM33.5172 27.8017C33.5172 27.5599 33.7151 27.3621 33.9569 27.3621H35.7155C35.9573 27.3621 36.1552 27.5599 36.1552 27.8017C36.1552 28.5326 36.7432 29.1207 37.4741 29.1207C38.2051 29.1207 38.7931 28.5326 38.7931 27.8017C38.7931 26.1036 37.4137 24.7241 35.7155 24.7241H33.9569C32.2587 24.7241 30.8793 26.1036 30.8793 27.8017V32.1983C30.8793 33.8964 32.2587 35.2759 33.9569 35.2759H35.7155C37.4137 35.2759 38.7931 33.8964 38.7931 32.1983C38.7931 31.4673 38.2051 30.8793 37.4741 30.8793C36.7432 30.8793 36.1552 31.4673 36.1552 32.1983C36.1552 32.4401 35.9573 32.6379 35.7155 32.6379H33.9569C33.7151 32.6379 33.5172 32.4401 33.5172 32.1983V27.8017Z" fill="#FE800A"/>
</svg>
