<svg width="60" height="60" viewBox="0 0 60 60" fill="none" xmlns="http://www.w3.org/2000/svg">
<rect width="60" height="60" rx="30" fill="#FE800A" fill-opacity="0.26"/>
<path d="M35.3256 31.3384H24.68C24.8417 34.9352 25.6392 38.2477 26.7712 40.6735C27.4069 42.0397 28.0928 43.0044 28.7286 43.5955C29.3531 44.1811 29.7825 44.2759 30.0056 44.2759C30.2286 44.2759 30.658 44.1811 31.2826 43.5955C31.9183 43.0044 32.6042 42.0341 33.2399 40.6735C34.372 38.2477 35.1694 34.9352 35.3311 31.3384H35.3256ZM24.6744 28.6617H35.32C35.1638 25.0648 34.3664 21.7524 33.2344 19.3266C32.5987 17.9659 31.9127 16.9956 31.277 16.4045C30.6524 15.819 30.2231 15.7242 30 15.7242C29.7769 15.7242 29.3475 15.819 28.723 16.4045C28.0873 16.9956 27.4013 17.9659 26.7656 19.3266C25.6336 21.7524 24.8362 25.0648 24.6744 28.6617ZM21.9977 28.6617C22.1929 23.8882 23.4253 19.4548 25.2265 16.5439C20.0905 18.3618 16.3097 23.0405 15.7855 28.6617H21.9977ZM15.7855 31.3384C16.3097 36.9595 20.0905 41.6382 25.2265 43.4561C23.4253 40.5452 22.1929 36.1119 21.9977 31.3384H15.7855ZM38.0023 31.3384C37.8071 36.1119 36.5747 40.5452 34.7735 43.4561C39.9095 41.6326 43.6903 36.9595 44.2145 31.3384H38.0023ZM44.2145 28.6617C43.6903 23.0405 39.9095 18.3618 34.7735 16.5439C36.5747 19.4548 37.8071 23.8882 38.0023 28.6617H44.2145Z" fill="#FE800A"/>
</svg>
