<svg width="40" height="40" viewBox="0 0 40 40" fill="none" xmlns="http://www.w3.org/2000/svg">
<rect width="40" height="40" rx="20" fill="#FE800A" fill-opacity="0.26"/>
<g clip-path="url(#clip0_21_201)">
<path d="M15.4636 12.0613C14.2126 12.0613 13.1954 13.0785 13.1954 14.3295V22.2682C13.1954 23.5193 14.2126 24.5364 15.4636 24.5364H27.9387C29.1898 24.5364 30.2069 23.5193 30.2069 22.2682V14.3295C30.2069 13.0785 29.1898 12.0613 27.9387 12.0613H15.4636ZM21.7012 15.4636C22.4531 15.4636 23.1743 15.7623 23.706 16.294C24.2377 16.8257 24.5364 17.5469 24.5364 18.2989C24.5364 19.0508 24.2377 19.772 23.706 20.3037C23.1743 20.8354 22.4531 21.1341 21.7012 21.1341C20.9492 21.1341 20.228 20.8354 19.6963 20.3037C19.1646 19.772 18.8659 19.0508 18.8659 18.2989C18.8659 17.5469 19.1646 16.8257 19.6963 16.294C20.228 15.7623 20.9492 15.4636 21.7012 15.4636ZM15.4636 16.3142V14.613C15.4636 14.4571 15.5912 14.3295 15.7471 14.3295H17.4483C17.6042 14.3295 17.7353 14.4571 17.7141 14.613C17.5865 15.6408 16.7714 16.4524 15.7471 16.58C15.5912 16.5977 15.4636 16.4701 15.4636 16.3142ZM15.4636 20.2835C15.4636 20.1276 15.5912 19.9965 15.7471 20.0177C16.7749 20.1453 17.5865 20.9604 17.7141 21.9847C17.7318 22.1406 17.6042 22.2682 17.4483 22.2682H15.7471C15.5912 22.2682 15.4636 22.1406 15.4636 21.9847V20.2835ZM27.6552 16.58C26.6274 16.4524 25.8158 15.6373 25.6882 14.613C25.6705 14.4571 25.7981 14.3295 25.954 14.3295H27.6552C27.8111 14.3295 27.9387 14.4571 27.9387 14.613V16.3142C27.9387 16.4701 27.8111 16.6013 27.6552 16.58ZM27.9387 20.2835V21.9847C27.9387 22.1406 27.8111 22.2682 27.6552 22.2682H25.954C25.7981 22.2682 25.667 22.1406 25.6882 21.9847C25.8158 20.9569 26.6309 20.1453 27.6552 20.0177C27.8111 20 27.9387 20.1276 27.9387 20.2835ZM11.4943 16.3142C11.4943 15.8428 11.115 15.4636 10.6437 15.4636C10.1723 15.4636 9.79311 15.8428 9.79311 16.3142V25.6705C9.79311 26.9216 10.8103 27.9387 12.0613 27.9387H25.954C26.4254 27.9387 26.8046 27.5595 26.8046 27.0881C26.8046 26.6168 26.4254 26.2376 25.954 26.2376H12.0613C11.7494 26.2376 11.4943 25.9824 11.4943 25.6705V16.3142Z" fill="#FE800A"/>
</g>
<defs>
<clipPath id="clip0_21_201">
<rect width="20.4138" height="18.1456" fill="white" transform="translate(9.79311 10.9272)"/>
</clipPath>
</defs>
</svg>
