<svg width="40" height="40" viewBox="0 0 40 40" fill="none" xmlns="http://www.w3.org/2000/svg">
<rect width="40" height="40" rx="20" fill="#FE800A" fill-opacity="0.26"/>
<path d="M23.6966 28.8275L21.5448 30.9517C21.1218 31.3747 20.6069 31.5862 20 31.5862C19.3931 31.5862 18.8782 31.3747 18.4552 30.9517L16.3035 28.8275H13.3793C12.7724 28.8275 12.2529 28.6115 11.8207 28.1793C11.3885 27.7471 11.1724 27.2275 11.1724 26.6207V23.6965L9.04829 21.5448C8.6253 21.1218 8.4138 20.6069 8.4138 20C8.4138 19.3931 8.6253 18.8781 9.04829 18.4551L11.1724 16.3034V13.3793C11.1724 12.7724 11.3885 12.2528 11.8207 11.8207C12.2529 11.3885 12.7724 11.1724 13.3793 11.1724H16.3035L18.4552 9.04824C18.8782 8.62525 19.3931 8.41376 20 8.41376C20.6069 8.41376 21.1218 8.62525 21.5448 9.04824L23.6966 11.1724H26.6207C27.2276 11.1724 27.7471 11.3885 28.1793 11.8207C28.6115 12.2528 28.8276 12.7724 28.8276 13.3793V16.3034L30.9517 18.4551C31.3747 18.8781 31.5862 19.3931 31.5862 20C31.5862 20.6069 31.3747 21.1218 30.9517 21.5448L28.8276 23.6965V26.6207C28.8276 27.2275 28.6115 27.7471 28.1793 28.1793C27.7471 28.6115 27.2276 28.8275 26.6207 28.8275H23.6966ZM20 22.731L22.1241 24C22.3264 24.1287 22.5241 24.1241 22.7173 23.9862C22.9104 23.8482 22.9793 23.6597 22.9241 23.4207L22.3724 21.0207L24.2483 19.3931C24.4322 19.2275 24.4874 19.0298 24.4138 18.8C24.3402 18.5701 24.1747 18.4459 23.9173 18.4275L21.4621 18.2344L20.4966 15.9448C20.4046 15.7241 20.2391 15.6138 20 15.6138C19.7609 15.6138 19.5954 15.7241 19.5035 15.9448L18.5379 18.2344L16.0828 18.4275C15.8253 18.4459 15.6598 18.5701 15.5862 18.8C15.5127 19.0298 15.5678 19.2275 15.7517 19.3931L17.6276 21.0207L17.0759 23.4207C17.0207 23.6597 17.0897 23.8482 17.2828 23.9862C17.4759 24.1241 17.6736 24.1287 17.8759 24L20 22.731Z" fill="#FE800A"/>
</svg>
