<svg width="40" height="40" viewBox="0 0 40 40" fill="none" xmlns="http://www.w3.org/2000/svg">
<rect width="40" height="40" rx="20" fill="#FE800A" fill-opacity="0.26"/>
<g clip-path="url(#clip0_21_195)">
<path d="M20 10.4828C22.5241 10.4828 24.9449 11.4855 26.7297 13.2703C28.5145 15.0551 29.5172 17.4759 29.5172 20C29.5172 22.5241 28.5145 24.9449 26.7297 26.7297C24.9449 28.5145 22.5241 29.5172 20 29.5172C17.4759 29.5172 15.0551 28.5145 13.2703 26.7297C11.4855 24.9449 10.4828 22.5241 10.4828 20C10.4828 17.4759 11.4855 15.0551 13.2703 13.2703C15.0551 11.4855 17.4759 10.4828 20 10.4828ZM19.1078 14.944V20C19.1078 20.2974 19.2565 20.5762 19.5055 20.7435L23.0745 23.1228C23.4835 23.398 24.0374 23.2864 24.3125 22.8738C24.5876 22.4611 24.4761 21.9109 24.0634 21.6358L20.8922 19.5241V14.944C20.8922 14.4495 20.4945 14.0517 20 14.0517C19.5055 14.0517 19.1078 14.4495 19.1078 14.944Z" fill="#FE800A"/>
</g>
<defs>
<clipPath id="clip0_21_195">
<rect width="19.0345" height="19.0345" fill="white" transform="translate(10.4828 10.4828)"/>
</clipPath>
</defs>
</svg>
