<svg width="40" height="40" viewBox="0 0 40 40" fill="none" xmlns="http://www.w3.org/2000/svg">
<rect width="40" height="40" rx="20" fill="#FE800A" fill-opacity="0.26"/>
<g clip-path="url(#clip0_24_122)">
<path d="M12.6379 13.6896C12.0562 13.6896 11.5862 14.1596 11.5862 14.7414C11.5862 15.3231 12.0562 15.7931 12.6379 15.7931H15.4875C15.8917 16.7232 16.8185 17.3707 17.8966 17.3707C18.9746 17.3707 19.9014 16.7232 20.3057 15.7931H27.3621C27.9438 15.7931 28.4138 15.3231 28.4138 14.7414C28.4138 14.1596 27.9438 13.6896 27.3621 13.6896H20.3057C19.9014 12.7595 18.9746 12.1121 17.8966 12.1121C16.8185 12.1121 15.8917 12.7595 15.4875 13.6896H12.6379ZM12.6379 18.9483C12.0562 18.9483 11.5862 19.4183 11.5862 20C11.5862 20.5817 12.0562 21.0517 12.6379 21.0517H20.7461C21.1503 21.9818 22.0772 22.6293 23.1552 22.6293C24.2332 22.6293 25.16 21.9818 25.5643 21.0517H27.3621C27.9438 21.0517 28.4138 20.5817 28.4138 20C28.4138 19.4183 27.9438 18.9483 27.3621 18.9483H25.5643C25.16 18.0181 24.2332 17.3707 23.1552 17.3707C22.0772 17.3707 21.1503 18.0181 20.7461 18.9483H12.6379ZM12.6379 24.2069C12.0562 24.2069 11.5862 24.6769 11.5862 25.2586C11.5862 25.8403 12.0562 26.3103 12.6379 26.3103H14.4357C14.84 27.2405 15.7668 27.8879 16.8448 27.8879C17.9229 27.8879 18.8497 27.2405 19.2539 26.3103H27.3621C27.9438 26.3103 28.4138 25.8403 28.4138 25.2586C28.4138 24.6769 27.9438 24.2069 27.3621 24.2069H19.2539C18.8497 23.2768 17.9229 22.6293 16.8448 22.6293C15.7668 22.6293 14.84 23.2768 14.4357 24.2069H12.6379Z" fill="#FE800A"/>
</g>
<defs>
<clipPath id="clip0_24_122">
<rect width="16.8276" height="16.8276" fill="white" transform="translate(11.5862 11.5862)"/>
</clipPath>
</defs>
</svg>
